<?xml version="1.0" encoding="UTF-8" standalone="no"?>
<!DOCTYPE svg PUBLIC "-//W3C//DTD SVG 20010904//EN"
              "http://www.w3.org/TR/2001/REC-SVG-20010904/DTD/svg10.dtd">

<svg xmlns="http://www.w3.org/2000/svg"
     width="10.3472in" height="10.1111in"
     viewBox="0 0 745 728">
  <path id="Selection #7"
        fill="black" stroke="none" stroke-width="1"
        d="M 87.00,156.58
           C 87.00,156.58 43.00,173.43 43.00,173.43
             43.00,173.43 22.00,184.31 22.00,184.31
             18.01,185.27 15.35,183.06 12.00,181.32
             4.04,177.18 0.15,177.40 0.00,167.00
             -0.10,159.50 -0.56,146.80 1.96,140.00
             4.34,133.60 13.14,123.98 18.00,119.00
             18.00,119.00 39.92,95.00 39.92,95.00
             39.92,95.00 62.44,67.00 62.44,67.00
             62.44,67.00 83.91,43.00 83.91,43.00
             83.91,43.00 90.09,36.32 90.09,36.32
             90.09,36.32 105.00,25.66 105.00,25.66
             112.36,20.60 119.20,15.38 126.00,9.57
             129.91,6.23 133.83,1.55 139.00,0.39
             147.87,-1.60 153.18,5.58 159.00,10.83
             170.86,21.54 182.00,29.23 195.00,38.28
             222.46,57.38 252.14,73.32 282.00,88.25
             297.44,95.96 325.22,108.85 341.99,110.84
             358.46,112.80 367.38,99.61 378.00,89.00
             382.70,84.31 387.71,77.90 395.00,78.21
             404.42,78.61 406.00,82.23 413.00,86.90
             413.00,86.90 429.00,95.75 429.00,95.75
             447.66,105.08 463.06,107.52 483.00,112.23
             483.00,112.23 500.00,117.08 500.00,117.08
             502.71,118.01 505.27,119.63 508.17,118.53
             511.30,117.34 516.42,112.42 519.00,110.07
             519.00,110.07 538.00,93.43 538.00,93.43
             559.88,75.23 585.70,60.55 610.00,45.80
             619.86,39.81 633.27,29.51 645.00,29.04
             653.20,28.71 665.01,32.00 673.00,34.29
             677.63,35.62 683.03,36.87 687.00,39.65
             692.71,43.64 714.62,67.46 720.42,73.99
             725.41,79.60 737.77,88.95 740.57,95.00
             742.46,99.08 742.01,106.41 742.00,111.00
             741.99,119.26 740.11,133.50 734.61,139.90
             728.70,146.77 718.59,149.05 710.00,149.01
             710.00,149.01 653.00,149.01 653.00,149.01
             653.00,149.01 621.00,149.01 621.00,149.01
             621.00,149.01 579.00,152.00 579.00,152.00
             575.40,152.05 568.47,152.87 565.00,153.68
             553.98,156.26 551.03,161.21 551.85,172.00
             552.08,175.14 551.95,176.83 552.76,180.00
             557.05,196.72 568.17,204.56 583.00,211.51
             583.00,211.51 635.00,234.31 635.00,234.31
             647.14,240.89 665.60,255.76 676.00,265.17
             679.49,268.33 686.58,275.23 689.04,279.00
             692.70,284.63 692.62,288.41 698.09,293.91
             707.00,302.85 726.65,307.09 737.53,319.17
             747.54,330.28 745.17,355.46 745.00,370.00
             745.00,370.00 744.09,380.00 744.09,380.00
             744.09,380.00 739.39,419.00 739.39,419.00
             739.39,419.00 734.40,446.00 734.40,446.00
             734.26,452.61 739.25,452.53 741.39,464.00
             743.98,477.91 743.02,491.96 743.00,506.00
             742.94,542.92 719.23,592.61 696.55,621.00
             675.17,647.77 642.79,667.95 613.00,684.30
             613.00,684.30 579.00,702.57 579.00,702.57
             559.30,710.99 524.41,719.82 503.00,723.41
             493.01,725.09 477.73,727.98 468.00,728.00
             468.00,728.00 437.00,728.00 437.00,728.00
             437.00,728.00 427.00,727.09 427.00,727.09
             399.21,725.06 371.48,719.74 345.00,711.00
             345.00,711.00 322.00,703.66 322.00,703.66
             322.00,703.66 283.00,684.55 283.00,684.55
             283.00,684.55 265.00,672.69 265.00,672.69
             238.97,655.92 220.23,642.32 199.17,619.00
             181.91,599.89 172.12,581.10 159.86,559.00
             159.86,559.00 152.69,544.00 152.69,544.00
             140.46,517.29 140.58,510.52 134.35,483.00
             131.56,470.67 126.02,441.84 126.00,430.00
             126.00,430.00 126.00,372.00 126.00,372.00
             126.00,372.00 129.83,335.00 129.83,335.00
             129.83,335.00 134.27,293.00 134.27,293.00
             134.27,293.00 139.58,265.00 139.58,265.00
             139.58,265.00 144.08,237.00 144.08,237.00
             144.08,237.00 150.08,199.00 150.08,199.00
             150.65,195.55 152.70,183.75 151.98,181.00
             150.74,176.33 143.87,172.59 140.00,170.00
             131.23,164.13 118.43,156.34 115.00,146.00
             115.00,146.00 87.00,156.58 87.00,156.58 Z
           M 636.00,348.23
           C 621.45,354.33 608.37,376.93 605.19,392.00
             604.87,394.54 604.97,399.27 605.19,402.00
             605.12,411.89 608.64,426.63 621.00,426.66
             630.06,426.67 637.33,421.44 643.05,415.00
             647.95,409.48 654.72,399.20 656.46,392.00
             657.36,388.29 657.14,385.64 657.29,382.00
             657.59,375.52 658.25,378.52 657.29,371.00
             656.16,362.31 656.94,348.37 646.00,346.61
             642.70,346.73 639.08,346.93 636.00,348.23 Z
           M 520.98,382.00
           C 518.51,390.29 513.94,398.83 520.98,406.00
             520.98,406.00 525.72,398.00 525.72,398.00
             527.54,394.15 529.16,382.03 528.24,378.00
             527.66,375.46 526.26,373.24 525.00,371.00
             522.00,374.75 522.28,377.57 520.98,382.00 Z" />
     <path id="Selection #3"
	  fill="#E1BEE7" stroke="#E1BEE7" stroke-width="1"
	             d="M 12.00,154.00
	                C 12.14,146.36 16.03,143.64 20.75,138.00
	                  20.75,138.00 40.75,114.00 40.75,114.00
	                  40.75,114.00 58.58,93.00 58.58,93.00
	                  79.38,66.36 94.01,44.11 124.00,26.72
	                  129.87,23.31 135.49,19.06 142.00,17.00
	                  143.25,24.70 151.22,29.46 157.00,33.99
	                  171.69,45.50 182.73,55.28 199.00,64.86
	                  199.00,64.86 234.00,89.97 234.00,89.97
	                  234.00,89.97 259.00,103.95 259.00,103.95
	                  267.93,109.54 279.50,118.46 290.17,118.13
	                  290.17,118.13 332.00,110.60 332.00,110.60
	                  335.89,110.09 339.92,111.64 344.00,111.91
	                  349.51,112.27 351.87,111.16 357.00,110.00
	                  357.58,121.34 366.23,111.85 370.00,108.58
	                  370.00,108.58 392.00,88.02 392.00,88.02
	                  395.40,86.32 398.69,87.46 402.00,87.05
	                  404.60,86.72 406.20,85.57 409.00,86.15
	                  409.00,86.15 433.00,98.69 433.00,98.69
	                  433.00,98.69 449.00,104.87 449.00,104.87
	                  449.00,104.87 461.00,110.67 461.00,110.67
	                  461.00,110.67 490.00,121.93 490.00,121.93
	                  494.37,123.46 500.11,124.76 503.91,127.12
	                  507.10,129.09 509.80,132.83 514.00,131.78
	                  517.41,130.94 521.51,126.45 524.00,124.00
	                  524.00,124.00 539.00,110.61 539.00,110.61
	                  539.00,110.61 554.00,99.68 554.00,99.68
	                  554.00,99.68 571.00,85.18 571.00,85.18
	                  571.00,85.18 587.00,74.68 587.00,74.68
	                  594.36,70.50 596.98,70.32 605.00,64.57
	                  616.03,56.67 633.00,43.18 647.00,43.00
	                  653.81,42.92 667.79,45.38 674.00,48.06
	                  677.96,49.76 686.47,55.74 689.83,58.59
	                  689.83,58.59 713.28,83.72 713.28,83.72
	                  713.28,83.72 728.00,98.00 728.00,98.00
	                  729.44,99.44 734.22,103.91 734.95,105.42
	                  736.49,108.64 732.91,112.29 731.35,115.00
	                  727.26,122.09 726.78,129.68 718.00,132.89
	                  711.18,135.38 705.76,129.67 700.00,127.26
	                  696.57,125.82 693.62,126.01 690.00,126.00
	                  690.00,126.00 650.00,123.91 650.00,123.91
	                  650.00,123.91 643.00,123.10 643.00,123.10
	                  643.00,123.10 633.00,123.98 633.00,123.98
	                  633.00,123.98 615.00,123.98 615.00,123.98
	                  615.00,123.98 595.00,125.83 595.00,125.83
	                  588.81,126.42 586.85,125.36 580.00,127.16
	                  580.00,127.16 560.00,134.30 560.00,134.30
	                  555.89,135.77 552.49,136.12 549.30,139.22
	                  536.57,150.75 543.41,170.07 549.30,183.00
	                  554.27,193.18 560.14,196.11 567.00,204.00
	                  559.34,201.81 553.94,197.56 547.00,194.32
	                  547.00,194.32 535.00,189.21 535.00,189.21
	                  535.00,189.21 507.00,171.46 507.00,171.46
	                  507.00,171.46 495.00,165.01 495.00,165.01
	                  489.28,161.07 474.27,146.29 469.00,144.07
	                  469.00,144.07 467.00,144.07 467.00,144.07
	                  467.00,144.07 462.00,144.07 462.00,144.07
	                  462.00,144.07 457.02,143.11 457.02,143.11
	                  453.04,143.07 451.16,147.34 448.79,149.96
	                  448.79,149.96 434.00,163.87 434.00,163.87
	                  434.00,163.87 411.00,182.61 411.00,182.61
	                  411.00,182.61 368.00,216.09 368.00,216.09
	                  360.13,221.60 349.63,223.75 345.00,226.27
	                  342.37,227.72 338.99,230.49 340.32,233.89
	                  342.22,238.76 347.34,237.32 351.00,236.05
	                  361.41,232.42 364.76,231.80 374.00,225.29
	                  374.00,225.29 400.00,205.40 400.00,205.40
	                  400.00,205.40 410.00,197.79 410.00,197.79
	                  410.00,197.79 429.00,180.25 429.00,180.25
	                  429.00,180.25 461.00,153.00 461.00,153.00
	                  471.19,156.38 479.81,167.07 488.00,173.62
	                  493.16,177.75 499.37,180.10 505.00,183.45
	                  505.00,183.45 530.00,199.54 530.00,199.54
	                  530.00,199.54 548.00,207.32 548.00,207.32
	                  548.00,207.32 592.00,228.58 592.00,228.58
	                  592.00,228.58 624.00,239.98 624.00,239.98
	                  632.37,244.06 634.34,247.21 641.00,251.96
	                  641.00,251.96 661.91,266.87 661.91,266.87
	                  666.95,271.53 667.14,273.38 671.18,278.00
	                  675.76,283.24 676.96,283.64 681.00,290.00
	                  673.41,288.41 669.89,285.83 661.00,285.36
	                  661.00,285.36 652.00,285.36 652.00,285.36
	                  652.00,285.36 645.00,284.14 645.00,284.14
	                  645.00,284.14 632.00,284.96 632.00,284.96
	                  632.00,284.96 619.00,284.00 619.00,284.00
	                  619.00,284.00 570.00,284.00 570.00,284.00
	                  570.00,284.00 549.00,284.87 549.00,284.87
	                  549.00,284.87 540.00,284.87 540.00,284.87
	                  540.00,284.87 532.00,285.91 532.00,285.91
	                  504.24,287.93 494.62,288.08 467.00,295.74
	                  467.00,295.74 423.00,312.40 423.00,312.40
	                  423.00,312.40 394.00,324.41 394.00,324.41
	                  387.50,328.08 383.67,336.11 391.11,341.26
	                  393.84,343.15 396.85,342.97 400.00,343.00
	                  396.70,350.49 397.55,351.26 399.00,359.00
	                  397.40,360.37 396.23,361.16 395.17,363.09
	                  395.17,363.09 390.81,379.00 390.81,379.00
	                  390.81,379.00 385.69,395.00 385.69,395.00
	                  385.69,395.00 382.22,403.00 382.22,403.00
	                  382.22,403.00 376.41,424.00 376.41,424.00
	                  376.41,424.00 372.58,436.00 372.58,436.00
	                  372.58,436.00 369.68,454.00 369.68,454.00
	                  368.56,460.72 368.01,459.10 368.00,467.00
	                  368.00,467.00 368.00,490.00 368.00,490.00
	                  368.01,499.25 369.41,502.44 370.73,511.00
	                  373.46,528.71 379.97,552.90 385.67,570.00
	                  389.91,582.73 397.50,603.59 405.53,614.00
	                  409.68,619.38 415.62,624.50 421.00,628.65
	                  424.84,631.61 428.69,634.57 433.00,636.83
	                  449.04,645.24 462.67,644.20 480.00,644.00
	                  489.04,643.89 491.92,641.93 500.00,639.89
	                  500.00,639.89 515.00,635.44 515.00,635.44
	                  515.00,635.44 537.00,628.55 537.00,628.55
	                  537.00,628.55 547.00,624.01 547.00,624.01
	                  547.00,624.01 564.00,617.69 564.00,617.69
	                  564.00,617.69 577.00,611.03 577.00,611.03
	                  577.00,611.03 585.00,605.53 585.00,605.53
	                  585.00,605.53 597.00,599.74 597.00,599.74
	                  597.00,599.74 615.00,589.39 615.00,589.39
	                  615.00,589.39 633.00,576.44 633.00,576.44
	                  633.00,576.44 643.00,570.54 643.00,570.54
	                  643.00,570.54 667.84,551.32 667.84,551.32
	                  674.84,545.32 694.14,523.60 700.19,516.00
	                  706.63,507.91 715.33,488.94 719.69,479.00
	                  722.20,473.28 721.92,470.16 726.00,465.00
	                  731.22,504.56 730.08,542.86 713.83,580.00
	                  711.21,585.99 696.60,610.24 692.67,615.00
	                  692.67,615.00 682.17,626.00 682.17,626.00
	                  678.79,629.77 677.73,631.82 673.68,635.47
	                  673.68,635.47 651.00,652.23 651.00,652.23
	                  635.50,663.91 629.74,667.24 613.00,676.31
	                  613.00,676.31 601.00,683.19 601.00,683.19
	                  601.00,683.19 589.00,688.32 589.00,688.32
	                  589.00,688.32 579.00,694.45 579.00,694.45
	                  579.00,694.45 567.00,698.46 567.00,698.46
	                  555.04,703.12 543.44,706.73 531.00,709.90
	                  531.00,709.90 521.00,713.09 521.00,713.09
	                  521.00,713.09 498.00,717.71 498.00,717.71
	                  498.00,717.71 481.00,719.54 481.00,719.54
	                  481.00,719.54 471.00,718.93 471.00,718.93
	                  471.00,718.93 446.00,718.93 446.00,718.93
	                  446.00,718.93 436.00,718.09 436.00,718.09
	                  421.19,717.05 406.55,716.13 392.00,712.77
	                  392.00,712.77 372.00,706.92 372.00,706.92
	                  372.00,706.92 364.00,705.24 364.00,705.24
	                  364.00,705.24 356.00,702.57 356.00,702.57
	                  356.00,702.57 338.00,697.64 338.00,697.64
	                  338.00,697.64 302.00,682.31 302.00,682.31
	                  302.00,682.31 284.00,674.13 284.00,674.13
	                  273.49,668.12 264.31,660.08 255.00,652.46
	                  255.00,652.46 239.00,640.70 239.00,640.70
	                  226.71,630.22 209.47,611.43 198.71,599.00
	                  193.22,592.65 182.56,581.61 178.47,575.00
	                  178.47,575.00 165.81,550.00 165.81,550.00
	                  165.81,550.00 161.58,537.00 161.58,537.00
	                  161.58,537.00 156.55,525.00 156.55,525.00
	                  156.55,525.00 152.58,510.00 152.58,510.00
	                  152.58,510.00 148.15,496.00 148.15,496.00
	                  145.28,485.75 143.99,475.49 142.58,465.00
	                  142.58,465.00 139.74,439.00 139.74,439.00
	                  139.74,439.00 139.74,431.00 139.74,431.00
	                  139.74,431.00 139.04,423.00 139.04,423.00
	                  139.04,423.00 139.04,411.00 139.04,411.00
	                  139.04,411.00 138.00,396.00 138.00,396.00
	                  138.00,396.00 139.00,371.00 139.00,371.00
	                  139.00,371.00 140.32,355.00 140.32,355.00
	                  141.31,348.92 143.11,343.25 143.29,337.00
	                  143.59,327.21 144.41,328.37 145.71,320.00
	                  145.71,320.00 147.73,305.00 147.73,305.00
	                  147.73,305.00 151.25,279.00 151.25,279.00
	                  151.25,279.00 154.88,262.00 154.88,262.00
	                  154.88,262.00 162.42,222.00 162.42,222.00
	                  163.89,213.93 170.43,188.34 169.88,182.00
	                  169.39,176.32 165.53,174.65 162.14,170.80
	                  155.53,163.30 146.96,158.09 139.00,152.13
	                  136.43,150.20 130.62,146.38 129.18,143.82
	                  127.37,140.61 128.66,137.39 128.29,135.00
	                  126.28,122.31 108.38,133.06 102.00,135.73
	                  77.48,146.00 43.69,159.01 21.00,171.00
	                  17.46,167.74 16.82,166.78 12.00,166.00
	                  12.00,166.00 12.00,154.00 12.00,154.00 Z
	                M 386.00,111.01
	                C 384.38,112.61 380.90,115.92 380.17,118.00
	                  379.04,121.19 381.82,125.01 387.00,121.95
	                  387.00,121.95 402.00,108.72 402.00,108.72
	                  403.81,107.14 406.68,104.16 409.00,103.66
	                  412.49,102.91 416.52,107.03 420.94,106.75
	                  423.60,106.59 425.25,104.80 424.34,102.11
	                  422.66,97.09 411.76,93.95 407.00,94.43
	                  400.86,96.55 390.92,106.19 386.00,111.01 Z
	                M 480.14,195.47
	                C 483.98,198.92 497.86,205.92 503.00,207.13
	                  504.88,207.27 508.96,208.11 510.69,207.13
	                  514.72,205.61 512.29,196.88 509.69,194.73
	                  507.44,192.87 498.39,191.24 495.00,190.00
	                  488.94,187.79 485.14,182.38 478.31,183.61
	                  474.43,186.90 476.84,192.50 480.14,195.47 Z
	                M 422.15,218.98
	                C 423.11,225.71 428.27,223.10 432.00,220.56
	                  432.00,220.56 450.00,206.13 450.00,206.13
	                  453.16,203.71 457.05,201.33 457.60,197.00
	                  458.19,192.35 454.62,191.52 451.00,193.16
	                  451.00,193.16 444.00,197.64 444.00,197.64
	                  437.60,201.30 427.40,203.76 426.00,212.00
             422.35,213.28 421.58,214.98 422.15,218.98 Z" />
             <path id="Selection #4"
	             fill="#FF9E80" stroke="#FF9E80" stroke-width="1"
	             d="M 620.00,292.00
	                C 620.00,292.00 644.00,293.91 644.00,293.91
	                  665.02,295.35 679.78,295.61 699.00,305.70
	                  707.93,310.39 721.07,317.46 726.20,326.42
	                  729.22,331.70 729.07,346.64 729.00,353.00
	                  729.00,353.00 726.09,378.00 726.09,378.00
	                  726.09,378.00 726.66,384.00 726.66,384.00
	                  726.66,395.38 723.92,406.86 721.80,418.00
	                  721.80,418.00 718.30,436.00 718.30,436.00
	                  718.30,436.00 706.33,470.00 706.33,470.00
	                  702.49,478.63 694.38,495.64 689.25,502.99
	                  689.25,502.99 679.76,514.00 679.76,514.00
	                  679.76,514.00 673.63,521.91 673.63,521.91
	                  665.00,531.94 642.90,551.55 632.00,559.41
	                  632.00,559.41 615.00,570.75 615.00,570.75
	                  615.00,570.75 574.00,597.29 574.00,597.29
	                  574.00,597.29 544.00,609.40 544.00,609.40
	                  544.00,609.40 511.00,622.78 511.00,622.78
	                  511.00,622.78 479.00,628.91 479.00,628.91
	                  479.00,628.91 467.00,628.91 467.00,628.91
	                  461.27,628.93 461.26,628.47 456.00,627.23
	                  451.28,626.12 446.48,625.15 442.00,623.22
	                  434.79,620.10 422.33,610.14 417.52,604.00
	                  410.76,595.39 400.03,569.97 397.12,559.00
	                  397.12,559.00 387.16,526.00 387.16,526.00
	                  387.16,526.00 382.04,500.00 382.04,500.00
	                  382.04,500.00 382.04,492.00 382.04,492.00
	                  381.00,486.27 380.04,488.03 380.00,480.00
	                  380.00,480.00 380.00,472.00 380.00,472.00
	                  380.09,464.55 381.23,464.54 382.00,459.00
	                  382.00,459.00 382.00,451.00 382.00,451.00
	                  382.00,451.00 383.83,440.00 383.83,440.00
	                  383.83,440.00 384.52,433.00 384.52,433.00
	                  384.52,433.00 398.00,388.00 398.00,388.00
	                  398.00,388.00 404.36,365.00 404.36,365.00
	                  404.13,361.92 401.76,360.01 400.43,357.00
	                  398.38,352.40 398.66,346.25 401.85,342.22
	                  404.55,338.82 411.02,336.73 415.00,334.96
	                  415.00,334.96 438.00,323.89 438.00,323.89
	                  451.19,317.49 465.07,312.76 479.00,308.26
	                  479.00,308.26 491.00,304.16 491.00,304.16
	                  491.00,304.16 503.00,301.83 503.00,301.83
	                  503.00,301.83 511.00,299.48 511.00,299.48
	                  511.00,299.48 524.00,297.83 524.00,297.83
	                  524.00,297.83 532.00,296.18 532.00,296.18
	                  532.00,296.18 555.00,295.00 555.00,295.00
	                  555.00,295.00 570.00,294.00 570.00,294.00
	                  577.44,293.99 581.66,294.59 589.00,292.59
	                  589.00,292.59 620.00,292.00 620.00,292.00 Z
	                M 621.00,344.59
	                C 617.19,347.80 608.30,356.13 605.70,360.00
	                  603.77,362.85 602.59,366.80 601.26,370.00
	                  594.41,386.47 593.66,391.07 593.30,409.00
	                  593.06,420.29 595.12,425.89 604.00,433.24
	                  612.25,440.08 616.73,440.80 627.00,438.32
	                  638.39,435.58 647.33,427.06 654.13,418.00
	                  666.10,402.04 670.18,394.89 672.17,375.00
	                  672.17,375.00 672.92,368.00 672.92,368.00
	                  672.92,360.76 670.13,347.76 665.39,342.21
	                  663.72,340.25 661.10,338.51 659.00,337.00
	                  652.50,332.32 650.00,331.31 642.00,332.39
	                  634.48,334.64 626.96,339.57 621.00,344.59 Z
	                M 513.21,356.27
	                C 508.11,361.08 503.49,378.81 502.00,386.00
	                  502.00,386.00 499.65,397.00 499.65,397.00
	                  499.68,399.91 501.37,403.16 502.23,406.00
	                  502.97,408.41 503.27,410.70 504.45,413.00
	                  507.40,418.76 514.20,424.18 521.00,423.44
	                  528.51,422.63 532.03,417.87 535.82,412.00
	                  543.88,399.51 543.27,393.03 542.59,379.00
	                  542.36,374.25 543.02,374.15 541.57,369.00
	                  538.91,359.55 532.60,351.41 522.00,352.33
             518.62,353.09 515.84,353.80 513.21,356.27 Z" />
</svg>
